# This file uses centimeters as units for non-parametric coordinates.

mtllib ±¦Ê¯.mtl
g default
v 0.271348 0.609078 0.155839
v -0.271348 0.609078 0.155839
v -0.000000 1.015210 0.155839
v -0.000000 -0.001696 0.155839
v 0.457274 0.646521 -0.000000
v 0.000000 1.404914 -0.000000
v -0.457274 0.646521 -0.000000
v -0.000000 -0.391399 -0.000000
v 0.260193 0.618429 -0.155839
v -0.260193 0.618429 -0.155839
v -0.000000 1.061674 -0.155839
v -0.000000 -0.048160 -0.155839
vt 0.562500 0.937500
vt 0.437500 0.812500
vt 0.562500 0.812500
vt 0.437500 0.937500
vt 0.617479 0.992479
vt 0.617479 0.757521
vt 0.382521 0.757521
vt 0.382521 0.992479
vt 0.562500 0.812500
vt 0.437500 0.812500
vt 0.437500 0.937500
vt 0.562500 0.937500
vt 0.382521 0.992479
vt 0.617479 0.992479
vt 0.617479 0.757521
vt 0.382521 0.757521
vn -0.000000 0.223163 0.974781
vn -0.437527 -0.000095 0.899205
vn -0.000000 -0.245407 0.969420
vn 0.437526 -0.000094 0.899206
vn 0.000000 -0.373966 0.927442
vn 0.625051 0.008484 0.780538
vn 0.000000 0.395271 0.918564
vn -0.625051 0.008484 0.780538
vn -0.000000 0.230079 -0.973172
vn 0.431451 0.002457 -0.902133
vn 0.000000 -0.247587 -0.968866
vn -0.431451 0.002457 -0.902133
vn 0.648048 -0.001999 -0.761597
vn 0.000000 -0.369686 -0.929157
vn 0.000001 0.406073 -0.913841
vn -0.648048 -0.001999 -0.761597
s 1
g pCube1
usemtl initialShadingGroup
f 3/3/1 2/2/2 4/4/3 1/1/4
f 1/1/4 4/4/3 8/8/5 5/5/6
f 6/6/7 7/7/8 2/2/2 3/3/1
f 7/7/8 8/8/5 4/4/3 2/2/2
f 5/5/6 6/6/7 3/3/1 1/1/4
s 2
f 11/9/9 9/12/10 12/11/11 10/10/12
f 9/12/10 5/14/13 8/13/14 12/11/11
f 6/15/15 11/9/9 10/10/12 7/16/16
f 7/16/16 10/10/12 12/11/11 8/13/14
f 5/14/13 9/12/10 11/9/9 6/15/15
g default
v -1.554574 0.235860 0.000000
v -2.054574 0.819235 0.250025
v -1.804599 0.819235 0.500000
v -1.804599 1.069210 0.250025
v -1.304549 1.069210 0.250025
v -1.304549 0.819235 0.500000
v -1.054574 0.819235 0.250025
v -2.054574 0.819235 -0.250025
v -1.804599 1.069210 -0.250025
v -1.804599 0.819235 -0.500000
v -1.304549 0.819235 -0.500000
v -1.304549 1.069210 -0.250025
v -1.054574 0.819235 -0.250025
vt 0.462501 0.037496
vt 0.750000 0.062494
vt 0.375000 0.312494
vt 0.375000 0.437506
vt 0.437494 0.187506
vt 0.562506 0.187506
vt 0.625000 0.312494
vt 0.375000 0.562494
vt 0.406247 0.687506
vt 0.437494 0.437506
vt 0.562506 0.437506
vt 0.625000 0.562494
vt 0.593753 0.687506
vt 0.437494 0.312494
vt 0.562506 0.312494
vt 0.437494 0.562494
vt 0.562506 0.562494
vt 0.812506 0.187506
vt 0.187494 0.062494
vt 0.312506 0.187506
vt 0.187494 0.187506
vt 0.687494 0.187506
vt 0.625000 0.437506
vn -0.523214 -0.672678 0.523214
vn -0.523214 -0.672678 0.523214
vn -0.523214 -0.672678 0.523214
vn 0.523214 -0.672678 0.523214
vn 0.523214 -0.672678 0.523214
vn 0.523214 -0.672678 0.523214
vn -0.707107 0.707107 0.000000
vn -0.707107 0.707107 0.000000
vn -0.707107 0.707107 0.000000
vn -0.707107 0.707107 0.000000
vn 0.000000 0.707107 0.707107
vn 0.000000 0.707107 0.707107
vn 0.000000 0.707107 0.707107
vn 0.000000 0.707107 0.707107
vn 0.707107 0.707107 0.000000
vn 0.707107 0.707107 0.000000
vn 0.707107 0.707107 0.000000
vn 0.707107 0.707107 0.000000
vn -0.523214 -0.672678 -0.523214
vn -0.523214 -0.672678 -0.523214
vn -0.523214 -0.672678 -0.523214
vn 0.000000 0.707107 -0.707107
vn 0.000000 0.707107 -0.707107
vn 0.000000 0.707107 -0.707107
vn 0.000000 0.707107 -0.707107
vn 0.523214 -0.672678 -0.523214
vn 0.523214 -0.672678 -0.523214
vn 0.523214 -0.672678 -0.523214
vn 0.000000 -0.650765 0.759280
vn 0.000000 -0.650765 0.759280
vn 0.000000 -0.650765 0.759280
vn 0.000000 1.000000 0.000000
vn 0.000000 1.000000 0.000000
vn 0.000000 1.000000 0.000000
vn 0.000000 1.000000 0.000000
vn 0.000000 -0.650765 -0.759280
vn 0.000000 -0.650765 -0.759280
vn 0.000000 -0.650765 -0.759280
vn 0.759280 -0.650765 0.000000
vn 0.759280 -0.650765 0.000000
vn 0.759280 -0.650765 0.000000
vn -0.759280 -0.650765 0.000000
vn -0.759280 -0.650765 0.000000
vn -0.759280 -0.650765 0.000000
vn -0.577350 0.577350 0.577350
vn -0.577350 0.577350 0.577350
vn -0.577350 0.577350 0.577350
vn 0.577350 0.577350 0.577350
vn 0.577350 0.577350 0.577350
vn 0.577350 0.577350 0.577350
vn -0.577350 0.577350 -0.577350
vn -0.577350 0.577350 -0.577350
vn -0.577350 0.577350 -0.577350
vn 0.577350 0.577350 -0.577350
vn 0.577350 0.577350 -0.577350
vn 0.577350 0.577350 -0.577350
s off
g pCube2
usemtl initialShadingGroup
f 13/17/17 15/21/18 14/36/19
f 13/17/20 19/38/21 18/22/22
f 14/19/23 16/30/24 21/26/25 20/20/26
f 16/30/27 15/21/28 18/22/29 17/31/30
f 17/31/31 19/23/32 25/39/33 24/27/34
f 20/24/35 22/32/36 13/25/37
f 22/32/38 21/26/39 24/27/40 23/33/41
f 23/33/42 25/28/43 13/29/44
f 13/17/45 18/22/46 15/21/47
f 16/30/48 17/31/49 24/27/50 21/26/51
f 22/32/52 23/33/53 13/29/54
f 13/18/55 25/34/56 19/38/57
f 13/35/58 14/36/59 20/37/60
f 14/36/61 15/21/62 16/30/63
f 17/31/64 18/22/65 19/38/66
f 20/20/67 21/26/68 22/32/69
f 23/33/70 24/27/71 25/39/72
